<svg width="64" height="64" viewBox="0 0 64 64" fill="none" xmlns="http://www.w3.org/2000/svg">
<rect width="64" height="64" rx="32" fill="url(#paint0_linear_564_6106)"/>
<path stroke="#7E22CE" stroke-width="2.66667" stroke-linecap="round" stroke-linejoin="round" d="M32,20C37.52,20 42,24.48 42,30C42,33.31 39.158,35.44 32,44C24.842,35.44 22,33.31 22,30C22,24.48 26.48,20 32,20Z"/>
<path stroke="#7E22CE" stroke-width="2.66667" stroke-linecap="round" stroke-linejoin="round" d="M26,30A2,2 0 1,0 30,30A2,2 0 1,0 26,30"/>
<path stroke="#7E22CE" stroke-width="2.66667" stroke-linecap="round" stroke-linejoin="round" d="M34,30A2,2 0 1,0 38,30A2,2 0 1,0 34,30"/>
<defs>
<linearGradient id="paint0_linear_564_6106" x1="0" y1="0" x2="64" y2="64" gradientUnits="userSpaceOnUse">
<stop stop-color="#A855F7" stop-opacity="0.3"/>
<stop offset="1" stop-color="#6366F1" stop-opacity="0.3"/>
</linearGradient>
</defs>
</svg>