<svg width="64" height="64" viewBox="0 0 64 64" fill="none" xmlns="http://www.w3.org/2000/svg">
<rect width="64" height="64" rx="32" fill="url(#paint0_linear_564_1947)"/>
<path d="M28 40V22.6667L44 20V37.3333" stroke="#7E22CE" stroke-width="2.66667" stroke-linecap="round" stroke-linejoin="round"/>
<path d="M24 44C26.2091 44 28 42.2091 28 40C28 37.7909 26.2091 36 24 36C21.7909 36 20 37.7909 20 40C20 42.2091 21.7909 44 24 44Z" stroke="#7E22CE" stroke-width="2.66667" stroke-linecap="round" stroke-linejoin="round"/>
<path d="M40 41.3334C42.2091 41.3334 44 39.5425 44 37.3334C44 35.1242 42.2091 33.3334 40 33.3334C37.7909 33.3334 36 35.1242 36 37.3334C36 39.5425 37.7909 41.3334 40 41.3334Z" stroke="#7E22CE" stroke-width="2.66667" stroke-linecap="round" stroke-linejoin="round"/>
<defs>
<linearGradient id="paint0_linear_564_1947" x1="0" y1="0" x2="64" y2="64" gradientUnits="userSpaceOnUse">
<stop stop-color="#A855F7" stop-opacity="0.3"/>
<stop offset="1" stop-color="#6366F1" stop-opacity="0.3"/>
</linearGradient>
</defs>
</svg>
