<svg width="64" height="64" viewBox="0 0 64 64" fill="none" xmlns="http://www.w3.org/2000/svg">
<rect width="64" height="64" rx="32" fill="url(#paint0_linear_564_2087)"/>
<path d="M36.0002 18.6666H24.0002C23.2929 18.6666 22.6146 18.9476 22.1145 19.4477C21.6144 19.9478 21.3335 20.626 21.3335 21.3333V42.6666C21.3335 43.3739 21.6144 44.0521 22.1145 44.5522C22.6146 45.0523 23.2929 45.3333 24.0002 45.3333H40.0002C40.7074 45.3333 41.3857 45.0523 41.8858 44.5522C42.3859 44.0521 42.6668 43.3739 42.6668 42.6666V25.3333L36.0002 18.6666Z" stroke="#7E22CE" stroke-width="2.66667" stroke-linecap="round" stroke-linejoin="round"/>
<path d="M34.6665 18.6666V24C34.6665 24.7072 34.9475 25.3855 35.4476 25.8856C35.9477 26.3857 36.6259 26.6666 37.3332 26.6666H42.6665" stroke="#7E22CE" stroke-width="2.66667" stroke-linecap="round" stroke-linejoin="round"/>
<path d="M29.3332 28H26.6665" stroke="#7E22CE" stroke-width="2.66667" stroke-linecap="round" stroke-linejoin="round"/>
<path d="M37.3332 33.3334H26.6665" stroke="#7E22CE" stroke-width="2.66667" stroke-linecap="round" stroke-linejoin="round"/>
<path d="M37.3332 38.6666H26.6665" stroke="#7E22CE" stroke-width="2.66667" stroke-linecap="round" stroke-linejoin="round"/>
<defs>
<linearGradient id="paint0_linear_564_2087" x1="0" y1="0" x2="64" y2="64" gradientUnits="userSpaceOnUse">
<stop stop-color="#A855F7" stop-opacity="0.3"/>
<stop offset="1" stop-color="#6366F1" stop-opacity="0.3"/>
</linearGradient>
</defs>
</svg>
