<svg width="64" height="64" viewBox="0 0 64 64" fill="none" xmlns="http://www.w3.org/2000/svg">
<rect width="64" height="64" rx="32" fill="url(#paint0_linear_564_9584)"/>
<path transform="scale(1.5) translate(6.3, -7.5)" d="M28.53 19.15a1 1 0 0 0-1 0L22 21.89A3 3 0 0 0 19 19H10A3 3 0 0 0 7 22v12a3 3 0 0 0 3 3h9a3 3 0 0 0 3-2.89l5.56 2.78A1 1 0 0 0 28 36a1 1 0 0 0 .53-.15A1 1 0 0 0 29 35V20A1 1 0 0 0 28.53 19.15ZM22 33a1 1 0 0 1-1 1H10a1 1 0 0 1-1-1V22A1 1 0 0 1 10 21h11a1 1 0 0 1 1 1Zm5-.62-3-1.5V25.12l3-1.5Z" fill="#7E22CE"/>
<defs>
<linearGradient id="paint0_linear_564_9584" x1="0" y1="0" x2="64" y2="64" gradientUnits="userSpaceOnUse">
<stop stop-color="#A855F7" stop-opacity="0.3"/>
<stop offset="1" stop-color="#6366F1" stop-opacity="0.3"/>
</linearGradient>
</defs>
</svg>